<?xml version="1.0" standalone="no"?>
<!DOCTYPE svg PUBLIC "-//W3C//DTD SVG 20010904//EN"
 "http://www.w3.org/TR/2001/REC-SVG-20010904/DTD/svg10.dtd">
<svg version="1.0" xmlns="http://www.w3.org/2000/svg"
 width="1000.000000pt" height="1000.000000pt" viewBox="0 0 1000.000000 1000.000000"
 preserveAspectRatio="xMidYMid meet">
<metadata>
Created by potrace 1.11, written by Peter Selinger 2001-2013
</metadata>
<g transform="translate(0.000000,1000.000000) scale(0.100000,-0.100000)"
fill="#000000" stroke="none">
<path d="M6709 8696 c-2 -2 -56 -7 -119 -10 -124 -8 -131 -8 -335 -31 -88 -10
-315 -52 -435 -81 -407 -100 -815 -281 -1205 -536 -67 -44 -274 -194 -285
-207 -3 -3 -36 -33 -75 -66 -449 -386 -824 -968 -1035 -1605 -80 -242 -163
-602 -186 -805 -3 -27 -8 -61 -10 -75 -5 -29 -17 -198 -18 -250 l-1 -34 178
-2 c128 -2 177 1 178 9 0 7 2 35 4 62 2 28 7 77 10 110 4 33 9 75 11 94 5 47
12 88 45 266 118 630 397 1232 774 1671 404 470 1022 843 1675 1009 58 15 116
29 130 31 14 3 32 7 40 9 8 3 33 7 55 10 22 3 51 8 65 11 60 11 111 18 200 29
25 3 63 7 85 10 168 20 737 26 1280 15 l200 -5 0 180 0 180 -110 2 c-271 6
-1112 13 -1116 9z"/>
<path d="M6908 7816 c-1 -2 -66 -6 -143 -10 -77 -3 -149 -8 -160 -10 -11 -2
-51 -7 -90 -10 -473 -48 -946 -196 -1291 -406 -620 -378 -1042 -945 -1218
-1635 -14 -55 -27 -111 -30 -125 -2 -14 -11 -63 -19 -110 -24 -129 -36 -246
-42 -401 -3 -60 -2 -110 2 -110 5 -1 86 -3 181 -3 l172 -2 1 50 c0 28 2 71 4
96 11 132 16 177 20 200 2 14 6 43 10 65 11 76 17 110 31 165 7 30 15 69 18
86 7 40 79 258 108 327 68 161 192 375 297 512 148 194 369 396 591 539 337
218 768 357 1248 401 37 4 90 9 117 12 72 7 851 9 1044 3 89 -3 167 -3 171 0
4 3 7 84 6 180 l-1 175 -55 2 c-137 4 -968 11 -972 9z"/>
<path d="M6969 6905 c-2 -1 -51 -6 -109 -10 -58 -4 -118 -8 -135 -10 -16 -2
-57 -7 -90 -10 -33 -3 -71 -8 -85 -10 -14 -3 -43 -7 -65 -10 -325 -40 -686
-167 -897 -316 -358 -253 -605 -611 -712 -1029 -22 -88 -28 -117 -42 -210 -3
-19 -7 -46 -10 -60 -2 -14 -6 -77 -9 -140 -16 -336 -16 -335 -46 -470 -31
-141 -105 -337 -161 -425 -105 -164 -148 -218 -256 -322 -93 -89 -203 -169
-308 -222 -77 -39 -289 -114 -351 -126 -15 -2 -71 -13 -123 -24 -52 -11 -120
-22 -150 -26 -30 -3 -66 -8 -80 -10 -214 -32 -596 -42 -1170 -32 l-125 2 0
-180 0 -180 480 0 c423 0 602 5 733 20 98 12 121 15 177 20 33 4 107 16 165
27 470 88 771 236 1045 513 318 322 497 746 520 1230 11 233 15 301 19 320 3
18 11 62 22 135 11 66 81 265 123 351 79 159 158 267 288 395 205 200 443 317
768 378 90 17 207 36 255 42 109 12 104 12 370 29 59 4 619 5 810 2 l115 -2 3
180 3 181 -484 1 c-267 1 -486 0 -488 -2z"/>
<path d="M5709 4960 c-2 -88 -7 -160 -13 -215 -4 -33 -9 -80 -12 -105 -3 -25
-10 -70 -15 -100 -6 -30 -12 -66 -15 -80 -35 -192 -128 -457 -226 -640 -216
-407 -556 -746 -968 -963 -238 -126 -570 -233 -840 -272 -105 -15 -174 -23
-240 -30 -30 -3 -82 -8 -115 -11 -78 -8 -900 -11 -1030 -4 -55 3 -121 4 -146
2 l-47 -3 2 -176 1 -177 95 -4 c52 -2 295 -4 540 -5 437 -2 556 2 800 29 319
34 637 111 906 220 205 82 486 243 620 354 17 14 42 34 56 45 244 192 502 492
640 745 88 161 103 191 143 290 100 243 174 526 199 760 3 25 8 65 10 90 3 25
8 99 11 165 l6 120 -181 0 -180 1 -1 -36z"/>
<path d="M6619 4986 c-7 -86 -10 -125 -19 -206 -18 -155 -20 -168 -51 -325
-190 -959 -649 -1702 -1344 -2177 -348 -238 -784 -433 -1145 -513 -8 -2 -44
-10 -80 -19 -36 -8 -81 -17 -100 -20 -19 -3 -73 -12 -120 -20 -116 -20 -206
-30 -380 -43 -110 -8 -925 -9 -1186 -1 l-151 4 1 -180 1 -179 195 -5 c511 -14
1119 -7 1315 14 22 3 61 6 86 9 26 2 60 6 75 9 16 2 49 7 74 11 25 4 59 9 75
11 17 2 64 11 105 19 41 9 84 17 95 19 77 15 284 73 387 107 170 57 266 97
463 194 913 447 1510 1140 1848 2145 55 165 130 460 152 600 3 19 8 46 10 60
11 54 13 69 20 121 3 30 8 65 10 79 4 25 11 100 20 223 3 37 2 67 -3 68 -4 1
-85 2 -179 4 -124 2 -173 0 -174 -9z"/>
</g>
</svg>
