<?xml version="1.0" encoding="UTF-8" standalone="no"?>
<!DOCTYPE svg PUBLIC "-//W3C//DTD SVG 1.1//EN" "http://www.w3.org/Graphics/SVG/1.1/DTD/svg11.dtd">
<svg version="1.1" xmlns="http://www.w3.org/2000/svg" xmlns:xlink="http://www.w3.org/1999/xlink" preserveAspectRatio="xMidYMid meet" viewBox="0 0 640 640" width="640" height="640"><defs><path d="M344.77 395.07C399.63 392.17 454.87 396.87 509.43 390.47C551.63 385.53 593.03 373.93 631.63 356.27C637.23 353.7 644.03 351.07 649.23 354.4C654.9 358.03 654.8 366.23 654 372.93C651.33 395.73 647.43 420.93 629.57 435.33C618.7 444.07 604.5 447.2 590.8 449.83C496 467.97 399 474.47 302.6 469.13C263.9 466.93 224 462.5 190.07 443.63C233.13 409.53 289.93 397.97 344.77 395.07Z" id="c7EM9238wF"></path><linearGradient id="gradienta8VJXFjicQ" gradientUnits="userSpaceOnUse" x1="190.08" y1="411.86" x2="654.43" y2="411.86"><stop style="stop-color: #2b9bf0;stop-opacity: 1" offset="0%"></stop><stop style="stop-color: #4da885;stop-opacity: 1" offset="100%"></stop></linearGradient><path d="M623.53 392.17C636 391.97 649.27 393.1 659.33 400.5C675.43 412.33 677.57 435.13 678.27 455.1C678.77 469.27 678.67 485.1 668.9 495.4C659.37 505.43 644 506.6 630.17 506.83C527.07 508.63 424.07 495.73 321 498.63C225.13 501.33 121.07 525.9 29.1 498.77C54 461.6 103.5 431.87 147.67 424.5C191.83 417.13 237 422.1 281.4 427.8C325.8 433.47 370.63 439.83 415.17 435.23C485.9 427.93 552.47 393.23 623.53 392.17Z" id="fsuudfgwO"></path><linearGradient id="gradientdZhWBvthm" gradientUnits="userSpaceOnUse" x1="29.1" y1="451.79" x2="678.42" y2="451.79"><stop style="stop-color: #4cb8ff;stop-opacity: 1" offset="0%"></stop><stop style="stop-color: #47b2a4;stop-opacity: 1" offset="100%"></stop></linearGradient></defs><g><g><g><use xlink:href="#c7EM9238wF" opacity="1" fill="url(#gradienta8VJXFjicQ)"></use><g><use xlink:href="#c7EM9238wF" opacity="1" fill-opacity="0" stroke="#000000" stroke-width="1" stroke-opacity="0"></use></g></g><g><use xlink:href="#fsuudfgwO" opacity="1" fill="url(#gradientdZhWBvthm)"></use><g><use xlink:href="#fsuudfgwO" opacity="1" fill-opacity="0" stroke="#000000" stroke-width="1" stroke-opacity="0"></use></g></g></g></g></svg>