<?xml version="1.0" encoding="UTF-8"?>
<svg width="1820px" height="418px" viewBox="0 0 1820 418" version="1.1" xmlns="http://www.w3.org/2000/svg" xmlns:xlink="http://www.w3.org/1999/xlink">
    <!-- Generator: Sketch 52.6 (67491) - http://www.bohemiancoding.com/sketch -->
    <title>下载</title>
    <desc>Created with Sketch.</desc>
    <defs>
        <polygon id="path-1" points="0.8 0.8 2003.1 0.8 2003.1 473.7 0.8 473.7"></polygon>
        <linearGradient x1="0.25781251%" y1="49.7500002%" x2="101.257813%" y2="49.7500002%" id="linearGradient-3">
            <stop stop-color="#3023AE" offset="0%"></stop>
            <stop stop-color="#0074FF" offset="0.103865607%"></stop>
            <stop stop-color="#BAD291" offset="100%"></stop>
        </linearGradient>
        <polygon id="path-4" points="0.8 0.8 2003.1 0.8 2003.1 473.7 0.8 473.7"></polygon>
        <linearGradient x1="0.25781251%" y1="49.7500002%" x2="101.257813%" y2="49.7500002%" id="linearGradient-6">
            <stop stop-color="#3023AE" offset="0%"></stop>
            <stop stop-color="#5299EF" offset="0%"></stop>
            <stop stop-color="#BFDD8B" offset="100%"></stop>
        </linearGradient>
    </defs>
    <g id="Page-2" stroke="none" stroke-width="1" fill="none" fill-rule="evenodd">
        <g id="下载" transform="translate(-184.000000, -56.000000)">
            <g id="Clipped">
                <mask id="mask-2" fill="white">
                    <use xlink:href="#path-1"></use>
                </mask>
                <g id="Path"></g>
                <path d="M653.2,327.9 C782.4,225.6 952.8,190.9 1117.3,182.2 C1281.9,173.5 1447.6,187.6 1611.3,168.4 C1737.9,153.6 1862.1,118.8 1977.9,65.8 C1994.7,58.1 2015.1,50.2 2030.7,60.2 C2047.7,71.1 2047.4,95.7 2045,115.8 C2037,184.2 2025.3,259.8 1971.7,303 C1939.1,329.2 1896.5,338.6 1855.4,346.5 C1571,400.9 1280,420.4 990.8,404.4 C874.7,397.8 755,384.5 653.2,327.9 Z" id="Path" fill="url(#linearGradient-3)" mask="url(#mask-2)"></path>
            </g>
            <g id="Clipped">
                <mask id="mask-5" fill="white">
                    <use xlink:href="#path-4"></use>
                </mask>
                <g id="Path"></g>
                <path d="M1328.5,302.7 C1540.7,280.8 1740.4,176.7 1953.6,173.5 C1991,172.9 2030.8,176.3 2061,198.5 C2109.3,234 2115.7,302.4 2117.8,362.3 C2119.3,404.8 2119,452.3 2089.7,483.2 C2061.1,513.3 2015,516.8 1973.5,517.5 C1664.2,522.9 1355.2,484.2 1046,492.9 C758.4,501 446.2,574.7 170.3,493.3 C245,381.8 393.5,292.6 526,270.5 C658.5,248.4 794,263.3 927.2,280.4 C1060.4,297.4 1194.9,316.5 1328.5,302.7 Z" id="Path" fill="url(#linearGradient-6)" mask="url(#mask-5)"></path>
            </g>
        </g>
    </g>
</svg>